<?xml version="1.0" standalone="no"?><!DOCTYPE svg PUBLIC "-//W3C//DTD SVG 1.1//EN" "http://www.w3.org/Graphics/SVG/1.1/DTD/svg11.dtd"><svg t="1575539064529" class="icon" viewBox="0 0 1024 1024" version="1.1" xmlns="http://www.w3.org/2000/svg" p-id="2959" width="20" height="20" xmlns:xlink="http://www.w3.org/1999/xlink"><defs><style type="text/css"></style></defs><path d="M199.598944 988.914924c-2.818185 0-5.582135 0-8.400321 0-1.029446-0.325411-2.059915-0.812505-3.143597-0.975211-11.543917-2.059915-21.028942-7.642051-29.158087-16.042371-8.508791-8.834202-17.288758-17.397229-26.015513-26.069749-24.551162-24.552186-49.103348-49.103348-73.65451-73.65451-7.42511-7.42511-12.248975-16.150842-14.09195-26.502607-0.271176-1.463328-0.975211-2.87242-1.517563-4.281513 0-2.818185 0-5.582135 0-8.400321 0.542352-1.409093 1.246387-2.818185 1.517563-4.281513 1.788739-10.080589 6.395664-18.697851 13.603833-25.907043 1.463328-1.463328 2.980891-2.980891 4.444219-4.444219 94.250594-94.250594 188.500165-188.44593 282.696524-282.696524 1.246387-1.246387 2.438539-2.547009 4.118807-4.227278-1.517563-1.300622-2.818185-2.168386-3.901867-3.252067-94.520747-94.520747-189.096752-189.042517-283.617499-283.563264-1.409093-1.409093-2.76395-2.76395-4.118807-4.173043-6.936993-7.099698-11.326976-15.501042-13.169951-25.25622-0.271176-1.463328-1.029446-2.818185-1.571798-4.227278 0-3.089361 0-6.124488 0-9.213849 0.542352-1.409093 1.300622-2.76395 1.571798-4.173043 1.842974-9.593496 6.070252-17.993816 12.95301-24.930809 34.524305-34.632775 69.102844-69.156056 103.734596-103.680361 6.341429-6.341429 14.037714-10.460236 22.871917-12.411681 2.168386-0.488117 4.281513-0.975211 6.449899-1.463328 2.818185 0 5.582135 0 8.400321 0 0.812505 0.216941 1.571798 0.596588 2.384303 0.705058 7.370875 0.759293 14.145162 3.252067 20.215414 7.479345 3.631714 2.547009 6.991228 5.5279 10.134825 8.671497 94.954629 94.900394 189.909258 189.800787 284.809651 284.756439 1.246387 1.246387 2.547009 2.438539 4.227278 4.118807 1.463328-1.680269 2.601244-3.089361 3.847631-4.389984 94.196359-94.250594 188.44593-188.500165 282.696524-282.696524 1.463328-1.463328 2.980891-2.980891 4.444219-4.444219 6.774287-6.612605 14.741749-10.948353 24.009833-12.95301 2.00568-0.433882 4.064572-0.812505 6.124488-1.246387 2.818185 0 5.582135 0 8.400321 0 1.89721 0.379647 3.739161 0.812505 5.636371 1.192152 9.53926 2.059915 17.668405 6.612605 24.551162 13.495362 33.927717 33.927717 67.855434 67.909669 101.837386 101.83841 0.705058 0.705058 1.409093 1.354857 2.059915 2.114151 6.558369 7.53358 11.165294 15.933901 11.923564 26.122961 0.054235 0.650823 0.433882 1.246387 0.705058 1.89721 0 3.089361 0 6.124488 0 9.213849-0.488117 2.438539-0.86674 4.878101-1.409093 7.262404-2.275833 9.376555-7.262404 17.072841-14.037714 23.847128-95.334275 95.28004-190.668551 190.614315-286.002826 285.948591-1.192152 1.192152-2.65548 2.00568-4.227278 3.197832 1.951445 2.00568 3.197832 3.306302 4.444219 4.552689 94.4133 94.412276 188.879811 188.879811 283.292088 283.292088 1.89721 1.89721 3.793396 3.685949 5.582135 5.690606 6.504134 7.42511 10.948353 15.771195 11.706623 25.852808 0.054235 0.812505 0.433882 1.571798 0.705058 2.384303 0 2.818185 0 5.582135 0 8.400321-0.488117 2.601244-0.86674 5.203512-1.463328 7.750521-2.168386 9.051143-6.882757 16.638959-13.495362 23.196305-20.37812 20.323884-40.648792 40.648792-61.026912 60.972677-13.332656 13.332656-26.665313 26.611078-39.943734 39.997969-7.262404 7.316639-15.82543 12.248975-26.015513 14.199397-1.626034 0.325411-3.143597 0.920976-4.76963 1.409093-3.089361 0-6.124488 0-9.213849 0-1.137916-0.379647-2.275833-0.920976-3.469008-1.137916-10.948353-2.059915-19.945261-7.42511-27.748994-15.284101C715.346291 877.267101 620.174722 782.041296 524.948917 686.815491c-1.192152-1.192152-2.00568-2.709715-3.143597-4.281513-1.89721 1.842974-3.035126 2.87242-4.064572 3.956102C423.057295 781.173532 328.319607 875.912243 233.635131 970.595696c-1.409093 1.409093-2.76395 2.76395-4.173043 4.118807-6.720052 6.449899-14.579043 10.677177-23.684422 12.628622C203.609281 987.775984 201.604624 988.372571 199.598944 988.914924z" p-id="2960"></path></svg>