<?xml version="1.0" encoding="utf-8"?>
<!-- Generator: Adobe Illustrator 21.0.0, SVG Export Plug-In . SVG Version: 6.00 Build 0)  -->
<svg version="1.1" id="图层_1" xmlns="http://www.w3.org/2000/svg" xmlns:xlink="http://www.w3.org/1999/xlink" x="0px" y="0px"
	 viewBox="0 0 130 53" style="enable-background:new 0 0 130 53;" xml:space="preserve">
<style type="text/css">
	.st0{fill:#08BF91;}
	.st1{fill:#274A59;}
</style>
<g>
	<g id="形状_10_拷贝_3_34_">
		<g>
			<path class="st0" d="M27.9,5.8c0,0-9.3,12.1-12.2,17.6C12.7,29,18.9,36,18.9,36S28.8,20.9,30,19.2C33.5,14.1,27.9,5.8,27.9,5.8z
				 M36.8,17c0,0-9.3,12.1-12.2,17.6c-3,5.5,3.3,12.6,3.3,12.6s9.9-15.1,11.1-16.8C42.3,25.3,36.8,17,36.8,17z"/>
		</g>
	</g>
	<g>
		<path class="st1" d="M50.8,41.9L50.8,41.9c-0.7-0.2-1.2-0.4-1.2-0.9c0-0.4,0.2-0.7,0.9-0.7c0.3,0,0.6,0.1,0.9,0.3
			c0.1,0,0.1,0.1,0.2,0.1c0.1,0,0.2-0.1,0.3-0.1c0.1-0.1,0.1-0.2,0.1-0.3c0-0.1-0.1-0.2-0.2-0.2c-0.4-0.2-0.8-0.3-1.3-0.3
			c-1.1,0-1.8,0.6-1.8,1.5c0,0.9,0.8,1.2,1.5,1.5c0.6,0.2,1.2,0.4,1.2,1c0,0.4-0.3,0.8-1,0.8c-0.4,0-0.8-0.1-1.2-0.4
			c-0.1,0-0.1-0.1-0.2-0.1c-0.1,0-0.2,0.1-0.3,0.2c-0.1,0.1-0.1,0.2-0.1,0.3c0,0.1,0.1,0.2,0.2,0.3c0.5,0.3,1.1,0.4,1.6,0.4
			c1.2,0,2-0.6,2-1.6C52.3,42.5,51.5,42.2,50.8,41.9z"/>
		<path class="st1" d="M56.3,39.6c-0.7,0-1.3,0.4-1.7,0.8l-0.1,0.1l0-1.2v-1.5c0-0.3-0.2-0.5-0.5-0.5c-0.3,0-0.5,0.2-0.5,0.5v6.7
			c0,0.3,0.2,0.5,0.5,0.5c0.3,0,0.5-0.2,0.5-0.5l0-3.3c0.5-0.5,0.8-0.7,1.4-0.7c0.7,0,1,0.4,1,1.4v2.7c0,0.3,0.2,0.5,0.5,0.5
			c0.3,0,0.5-0.2,0.5-0.5v-2.8C57.9,40.2,57.4,39.6,56.3,39.6z"/>
		<path class="st1" d="M60.1,39.7c-0.3,0-0.5,0.2-0.5,0.5v4.2c0,0.3,0.2,0.5,0.5,0.5c0.3,0,0.5-0.2,0.5-0.5v-4.2
			C60.6,39.9,60.4,39.7,60.1,39.7z"/>
		<path class="st1" d="M60.1,37.4c-0.4,0-0.6,0.2-0.6,0.6s0.3,0.6,0.6,0.6c0.4,0,0.7-0.3,0.7-0.6C60.8,37.6,60.5,37.4,60.1,37.4z"/>
		<path class="st1" d="M66,39.7c-0.2,0-0.4,0.1-0.4,0.3l-0.7,2.4l-0.4,1.5l-0.1,0h-0.1l0,0c-0.1-0.3-0.2-0.6-0.3-0.9l-0.2-0.6
			L62.9,40c-0.1-0.2-0.2-0.3-0.4-0.3c-0.2,0-0.3,0.1-0.4,0.2c-0.1,0.1-0.1,0.3,0,0.4l1.8,4.6l-0.1,0.4c-0.2,0.7-0.6,1-1.2,1
			c0,0,0,0,0,0c-0.2,0-0.3,0.1-0.4,0.3c0,0.1,0,0.2,0.1,0.3c0.1,0.1,0.2,0.1,0.3,0.2c0,0,0.1,0,0.1,0c1,0,1.6-0.6,2.1-1.9l1.7-5
			c0-0.1,0-0.3-0.1-0.4C66.3,39.8,66.1,39.7,66,39.7z"/>
		<path class="st1" d="M69.5,39.6c-0.6,0-1.2,0.2-1.8,0.5c-0.1,0-0.1,0.1-0.2,0.2c0,0.1,0,0.2,0,0.3c0.1,0.1,0.2,0.2,0.3,0.2
			c0.1,0,0.1,0,0.2,0c0.4-0.2,0.8-0.3,1.2-0.3c0.7,0,1.1,0.4,1.1,1.2l0,0.1l-0.1,0c-2.2,0.2-3.1,0.8-3.1,1.9c0,0.9,0.6,1.5,1.5,1.5
			c0.5,0,1.1-0.2,1.7-0.7l0,0h0.1l0,0.3c0,0.2,0.2,0.4,0.4,0.4c0.2,0,0.4-0.2,0.4-0.4v-2.7C71.4,40.3,70.8,39.6,69.5,39.6z
			 M70.4,43.7c-0.5,0.5-0.9,0.6-1.3,0.6c-0.6,0-0.9-0.3-0.9-0.8c0-0.7,0.7-1.1,2.2-1.3l0.1,0L70.4,43.7z"/>
		<path class="st1" d="M75.9,39.6c-0.7,0-1.3,0.4-1.7,0.9l0,0H74l0-0.4c0-0.2-0.2-0.4-0.4-0.4c-0.2,0-0.4,0.2-0.4,0.4v4.3
			c0,0.3,0.2,0.5,0.5,0.5c0.3,0,0.5-0.2,0.5-0.5l0-3.3c0.5-0.5,0.8-0.7,1.4-0.7c0.7,0,1,0.4,1,1.4v2.7c0,0.3,0.2,0.5,0.5,0.5
			c0.3,0,0.5-0.2,0.5-0.5v-2.8C77.4,40.2,76.9,39.6,75.9,39.6z"/>
		<path class="st1" d="M80.5,44.3c-0.1,0-0.1-0.1-0.2-0.1c-0.1-0.1-0.1-0.2-0.1-0.4v-6c0-0.3-0.2-0.5-0.5-0.5s-0.5,0.2-0.5,0.5v6
			c0,0.9,0.3,1.3,1,1.3c0.1,0,0.3-0.1,0.3-0.2c0.1-0.1,0.1-0.2,0.1-0.4C80.7,44.4,80.6,44.3,80.5,44.3z"/>
		<path class="st1" d="M84.2,39.6c-1.2,0-2.5,0.9-2.5,2.8c0,1.8,1.2,2.7,2.5,2.7c1.2,0,2.5-0.9,2.5-2.7
			C86.6,40.5,85.4,39.6,84.2,39.6z M84.2,44.3c-0.9,0-1.4-0.8-1.4-1.9c0-1.2,0.6-2,1.4-2c0.9,0,1.4,0.8,1.4,2
			C85.6,43.5,85.1,44.3,84.2,44.3z"/>
		<path class="st1" d="M91.8,39.7c-0.3,0-0.5,0.2-0.5,0.5l0,3.2c-0.5,0.6-0.8,0.8-1.3,0.8c-0.7,0-1-0.4-1-1.4v-2.7
			c0-0.3-0.2-0.5-0.5-0.5c-0.3,0-0.5,0.2-0.5,0.5V43c0,1.4,0.5,2,1.6,2c0.6,0,1.2-0.3,1.7-0.9l0,0h0.1l0,0.4c0,0.2,0.2,0.4,0.4,0.4
			c0.2,0,0.4-0.2,0.4-0.4v-4.3C92.3,39.9,92.1,39.7,91.8,39.7z"/>
		<path class="st1" d="M94.7,43.6c-0.4,0-0.7,0.3-0.7,0.7c0,0.4,0.3,0.7,0.7,0.7s0.7-0.3,0.7-0.7C95.3,43.9,95,43.6,94.7,43.6z"/>
		<path class="st1" d="M100.2,44c-0.1,0-0.1,0-0.2,0.1c-0.3,0.2-0.6,0.2-0.9,0.2c-0.9,0-1.6-0.8-1.6-1.9c0-1.2,0.7-2,1.6-2
			c0.2,0,0.5,0.1,0.7,0.2c0.1,0,0.1,0.1,0.2,0.1c0.1,0,0.2-0.1,0.3-0.2c0.1-0.1,0.1-0.2,0.1-0.3c0-0.1-0.1-0.2-0.2-0.2
			c-0.4-0.2-0.7-0.3-1.1-0.3c-1.2,0-2.6,0.9-2.6,2.8c0,1.6,1,2.7,2.5,2.7c0.5,0,0.9-0.1,1.3-0.4c0.2-0.1,0.2-0.3,0.1-0.5
			C100.4,44,100.3,44,100.2,44z"/>
		<path class="st1" d="M103.8,39.6c-1.2,0-2.5,0.9-2.5,2.8c0,1.8,1.2,2.7,2.5,2.7s2.5-0.9,2.5-2.7C106.2,40.5,105,39.6,103.8,39.6z
			 M103.8,44.3c-0.9,0-1.4-0.8-1.4-1.9c0-1.2,0.6-2,1.4-2c0.9,0,1.4,0.8,1.4,2C105.2,43.5,104.6,44.3,103.8,44.3z"/>
		<path class="st1" d="M113.5,39.6c-0.6,0-1.1,0.3-1.7,1l-0.1,0.1l0-0.1c-0.2-0.6-0.7-0.9-1.4-0.9c-0.5,0-1.1,0.3-1.6,0.9l0,0h-0.1
			l0-0.4c0-0.2-0.2-0.4-0.4-0.4c-0.2,0-0.4,0.2-0.4,0.4v4.3c0,0.3,0.2,0.5,0.5,0.5s0.5-0.2,0.5-0.5l0-3.3c0.5-0.5,0.9-0.8,1.3-0.8
			c0.7,0,1,0.4,1,1.4v2.7c0,0.3,0.2,0.5,0.5,0.5c0.3,0,0.5-0.2,0.5-0.5l0-3.3c0.5-0.5,0.9-0.8,1.3-0.8c0.7,0,1,0.4,1,1.4v2.7
			c0,0.3,0.2,0.5,0.5,0.5h0c0.3,0,0.5-0.2,0.5-0.5v-2.8C115.1,40.3,114.5,39.6,113.5,39.6z"/>
		<path class="st1" d="M90,20.5c0-0.6-0.5-1.1-1.1-1.1H82c-0.6,0-1.1,0.5-1.1,1.1c0,0.6,0.5,1.1,1.1,1.1h6.9
			C89.5,21.6,90,21.1,90,20.5z"/>
		<path class="st1" d="M80.2,33.9h10.4c0.6,0,1.1-0.5,1.1-1.1c0-0.6-0.5-1.1-1.1-1.1H89l2.1-7.2c0.1-0.3,0.1-0.6-0.1-0.9
			c-0.1-0.3-0.4-0.5-0.7-0.6c-0.1,0-0.2,0-0.3,0c-0.5,0-1,0.3-1.1,0.8l-2.3,7.9h-6.3c-0.6,0-1.1,0.5-1.1,1.1
			C79.1,33.4,79.6,33.9,80.2,33.9z"/>
		<path class="st1" d="M76.2,28.9c0-0.6-0.5-1.1-1.1-1.1h-2.9c-0.6,0-1.1,0.5-1.1,1.1c0,0.6,0.5,1.1,1.1,1.1h2.9
			C75.7,30.1,76.2,29.6,76.2,28.9z"/>
		<path class="st1" d="M78.2,23.7v-8.6c0-0.6-0.5-1.1-1.1-1.1h-4.7c-0.6,0-1.1,0.5-1.1,1.1c0,0.6,0.5,1.1,1.1,1.1h3.5v7.3h-1.8V19
			c0-0.6-0.5-1.1-1.1-1.1c-0.6,0-1.1,0.5-1.1,1.1v5.8c0,0.6,0.5,1.1,1.1,1.1h3.5V32h-1.7c-0.6,0-1.1,0.5-1.1,1.1
			c0,0.6,0.5,1.1,1.1,1.1h2.9c0.6,0,1.1-0.5,1.1-1.1v-8.4C78.8,24.3,78.5,23.9,78.2,23.7z"/>
		<path class="st1" d="M80.6,20.1l4.7-4.7l4.8,4.8c0.2,0.2,0.5,0.3,0.8,0.3c0.3,0,0.6-0.1,0.8-0.3c0.2-0.2,0.3-0.5,0.3-0.8
			s-0.1-0.6-0.3-0.8l-5.7-5.7c-0.2-0.2-0.5-0.3-0.8-0.3c-0.3,0-0.6,0.1-0.8,0.3L79,18.4c-0.4,0.4-0.4,1.2,0,1.6
			c0.2,0.2,0.5,0.3,0.8,0.3C80.1,20.4,80.4,20.3,80.6,20.1z"/>
		<path class="st1" d="M81.4,23.8c-0.1,0-0.2,0-0.3,0c-0.3,0.1-0.5,0.3-0.7,0.5c-0.2,0.3-0.2,0.6-0.1,0.9l1.1,4.3
			c0.1,0.5,0.6,0.9,1.1,0.9c0.1,0,0.2,0,0.3,0c0.6-0.2,1-0.8,0.8-1.4l-1.1-4.3C82.4,24.1,81.9,23.8,81.4,23.8z"/>
		<path class="st1" d="M85,22.5c-0.1,0-0.1,0-0.2,0c-0.3,0.1-0.6,0.2-0.7,0.5c-0.2,0.3-0.2,0.6-0.2,0.9l0.8,4.4
			c0.1,0.5,0.6,0.9,1.1,0.9c0.1,0,0.1,0,0.2,0c0.3-0.1,0.6-0.2,0.7-0.5s0.2-0.6,0.2-0.9l-0.8-4.4C86.1,22.8,85.6,22.5,85,22.5z"/>
		<path class="st1" d="M49.6,28.5h9.1c-0.6,0.9-1.5,1.5-2.6,2c-1.2,0.4-5,1.2-6.6,1.6c-0.6,0.1-1,0.7-0.9,1.4c0.1,0.6,0.6,1,1.1,1
			c0.1,0,0.2,0,0.2,0c2.1-0.4,5.7-1.2,7-1.7c2.1-0.8,3.6-2.3,4.4-4.1H67c0.6,0,1.1-0.5,1.1-1.1c0-0.6-0.5-1.1-1.1-1.1h-5
			c0-0.3,0.1-0.5,0.1-0.8v-6.1c0-0.6-0.5-1.2-1.2-1.2s-1.2,0.5-1.2,1.2v6.1c0,0.3,0,0.5-0.1,0.8h-10c-0.6,0-1.1,0.5-1.1,1.1
			C48.5,27.9,49,28.5,49.6,28.5z"/>
		<path class="st1" d="M49.6,20.5c0.6,0,1.1-0.5,1.1-1.1v-2.2h15.1v2.2c0,0.6,0.5,1.1,1.1,1.1c0.6,0,1.1-0.5,1.1-1.1V16
			c0-0.6-0.5-1.1-1.1-1.1h-6.9l-1-1.7c-0.2-0.3-0.6-0.5-1-0.5c-0.2,0-0.4,0.1-0.6,0.2C57.2,13,57,13.2,57,13.5
			c-0.1,0.3,0,0.6,0.2,0.9l0.3,0.4h-7.7c-0.6,0-1.1,0.5-1.1,1.1v3.4C48.5,20,49,20.5,49.6,20.5z"/>
		<path class="st1" d="M68.2,33.4c0.1-0.3,0.1-0.6,0-0.9c-0.1-0.3-0.3-0.5-0.6-0.6l-5.3-2.4c-0.2-0.1-0.3-0.1-0.5-0.1
			c-0.4,0-0.9,0.3-1,0.7c-0.1,0.3-0.1,0.6,0,0.9c0.1,0.3,0.3,0.5,0.6,0.6l5.3,2.4c0.2,0.1,0.3,0.1,0.5,0.1
			C67.6,34.1,68,33.8,68.2,33.4z"/>
		<path class="st1" d="M58.7,21.3c0.3-0.6,0-1.3-0.6-1.5L54,17.9c-0.2-0.1-0.3-0.1-0.5-0.1c-0.4,0-0.9,0.3-1,0.7
			c-0.1,0.3-0.1,0.6,0,0.9c0.1,0.3,0.3,0.5,0.6,0.6l4.1,1.9c0.2,0.1,0.3,0.1,0.5,0.1C58.1,22,58.6,21.7,58.7,21.3z"/>
		<path class="st1" d="M56.6,23.8L52,21.7c-0.2-0.1-0.3-0.1-0.5-0.1c-0.4,0-0.9,0.3-1,0.7c-0.1,0.3-0.1,0.6,0,0.9
			c0.1,0.3,0.3,0.5,0.6,0.6l4.6,2.1c0.2,0.1,0.3,0.1,0.5,0.1c0.4,0,0.9-0.3,1-0.7c0.1-0.3,0.1-0.6,0-0.9
			C57.1,24.1,56.8,23.9,56.6,23.8z"/>
		<path class="st1" d="M102.6,19.2h3.6l-3.8,2.9c-0.2,0.2-0.4,0.4-0.4,0.7c0,0.3,0,0.5,0.2,0.8c0.2,0.3,0.5,0.4,0.8,0.4
			c0.2,0,0.4-0.1,0.6-0.2l3.8-2.9v1.3c0,0.6,0.5,1,1,1s1-0.5,1-1v-1.3l3.8,2.9c0.2,0.1,0.4,0.2,0.6,0.2c0.3,0,0.6-0.1,0.8-0.4
			c0.2-0.2,0.2-0.5,0.2-0.8c0-0.3-0.2-0.5-0.4-0.7l-3.8-2.9h3.6c0.6,0,1-0.5,1-1c0-0.6-0.5-1-1-1h-4.8v-3c0-0.6-0.5-1-1-1
			s-1,0.5-1,1v3h-4.8c-0.6,0-1,0.5-1,1C101.6,18.7,102,19.2,102.6,19.2z"/>
		<path class="st1" d="M112,16.8c0.3,0,0.6-0.2,0.8-0.4l0.9-1.3c0.2-0.2,0.2-0.5,0.2-0.8c0-0.3-0.2-0.5-0.4-0.7
			c-0.2-0.1-0.4-0.2-0.6-0.2c-0.3,0-0.6,0.2-0.8,0.4l-0.9,1.3c-0.2,0.2-0.2,0.5-0.2,0.8c0,0.3,0.2,0.5,0.4,0.7
			C111.5,16.8,111.7,16.8,112,16.8z"/>
		<path class="st1" d="M103.9,16.4c0.2,0.3,0.5,0.4,0.8,0.4c0.2,0,0.4-0.1,0.6-0.2c0.2-0.2,0.4-0.4,0.4-0.7c0-0.3,0-0.5-0.2-0.8
			l-0.9-1.3c-0.2-0.3-0.5-0.4-0.8-0.4c-0.2,0-0.4,0.1-0.6,0.2c-0.2,0.2-0.4,0.4-0.4,0.7c0,0.3,0,0.5,0.2,0.8L103.9,16.4z"/>
		<path class="st1" d="M114,26.8c0.6,0,1-0.5,1-1c0-0.6-0.5-1-1-1h-6.4c0.1-0.2,0.1-0.4,0.1-0.6c-0.1-0.3-0.2-0.5-0.5-0.6
			c-0.2-0.1-0.3-0.1-0.5-0.1c-0.4,0-0.7,0.2-0.9,0.5l-0.6,0.9h-2.7c-0.6,0-1,0.5-1,1c0,0.6,0.5,1,1,1h1.5l-0.8,1.3
			c-0.2,0.3-0.2,0.6-0.1,0.8c0.1,0.3,0.3,0.5,0.6,0.6l2.8,1.3c-1.4,0.4-3.3,0.9-4.2,1.1c-0.5,0.1-0.9,0.7-0.7,1.3
			c0.1,0.5,0.5,0.8,1,0.8c0.1,0,0.2,0,0.2,0c1.6-0.4,4.4-1.1,5.7-1.6c0.3-0.1,0.5-0.2,0.8-0.3l3.8,1.7c0.1,0.1,0.3,0.1,0.4,0.1
			c0.4,0,0.8-0.2,1-0.6c0.2-0.5,0-1.1-0.5-1.4l-2.7-1.2c1-1,1.8-2.3,2.1-3.8H114z M109.1,29.7l-3.5-1.5l0.8-1.3h4.7
			C110.8,28,110.1,29,109.1,29.7z"/>
		<path class="st1" d="M101.8,23.2c0.1-0.3,0-0.6-0.2-0.9l-2.1-3.1h0.9c0.6,0,1.1-0.5,1.1-1.1c0-0.6-0.5-1.1-1.1-1.1h-1.1v-3.3
			c0-0.6-0.5-1.1-1.1-1.1c-0.6,0-1.1,0.5-1.1,1.1V17h-1.3c-0.6,0-1.1,0.5-1.1,1.1c0,0.6,0.5,1.1,1.1,1.1H97v0.1c0,0,0,0,0,0.1
			l-3,7.3c-0.2,0.6,0,1.3,0.6,1.5c0.1,0.1,0.3,0.1,0.4,0.1c0.5,0,0.9-0.3,1.1-0.7l0.9-2.3v7.8c0,0.6,0.5,1.1,1.1,1.1
			c0.6,0,1.1-0.5,1.1-1.1V23.1l0.4,0.6c0.2,0.3,0.6,0.5,0.9,0.5c0.2,0,0.5-0.1,0.7-0.2C101.6,23.8,101.8,23.5,101.8,23.2z"/>
	</g>
</g>
</svg>
