<?xml version="1.0" standalone="no"?><!DOCTYPE svg PUBLIC "-//W3C//DTD SVG 1.1//EN" "http://www.w3.org/Graphics/SVG/1.1/DTD/svg11.dtd"><svg t="1577155345730" class="icon" viewBox="0 0 1024 1024" version="1.1" xmlns="http://www.w3.org/2000/svg" p-id="4342" width="16" height="16" xmlns:xlink="http://www.w3.org/1999/xlink"><defs><style type="text/css"></style></defs><path d="M56.32 224.256h911.36a56.576 56.576 0 0 0 0-112.896H56.32a56.576 56.576 0 0 0 0 112.896z m912.896 228.864H56.32a56.576 56.576 0 0 0 0 112.896h911.36a56.832 56.832 0 0 0 56.32-56.32 55.552 55.552 0 0 0-54.784-56.576z m0 342.016H56.32a56.576 56.576 0 0 0 0 112.896h911.36a57.088 57.088 0 0 0 56.32-56.576 55.296 55.296 0 0 0-54.784-56.32z" fill="#ffffff" p-id="4343"></path></svg>