<?xml version="1.0" standalone="no"?><!DOCTYPE svg PUBLIC "-//W3C//DTD SVG 1.1//EN" "http://www.w3.org/Graphics/SVG/1.1/DTD/svg11.dtd"><svg t="1577256912408" class="icon" viewBox="0 0 1024 1024" version="1.1" xmlns="http://www.w3.org/2000/svg" p-id="3762" width="32" height="32" xmlns:xlink="http://www.w3.org/1999/xlink"><defs><style type="text/css"></style></defs><path d="M510.714311 340.036267c26.294044 0 47.547733-26.305422 47.547733-58.754845 0-32.494933-21.253689-58.834489-47.547733-58.834489-26.282667 0-47.638756 26.339556-47.638755 58.834489 0.011378 32.449422 21.356089 58.754844 47.638755 58.754845z" fill="#9b9da2" p-id="3763"></path><path d="M594.181689 412.2624c0.125156-0.284444 0.273067-0.477867 0.352711-0.785067l83.137422-234.1888a908.105956 908.105956 0 0 0-63.579022-20.673422L556.452978 350.549333h-5.256534l-0.694044 2.400711 20.400356 17.237334-24.325689 12.219733 11.195733 19.330845-31.004444 68.471466-4.983467-96.6656 4.448711-3.879822-5.927822-21.697422h-19.228445l-5.950577 21.697422 4.471466 3.879822-4.994844 96.790756-31.049956-68.573867 11.298134-19.342222-24.393956-12.219733 20.388978-17.237334-0.591645-2.412089h-3.845689l-57.628444-193.9456a907.195733 907.195733 0 0 0-63.613156 20.673423l81.863112 230.593422c0.512 23.586133 1.001244 47.149511 1.718044 70.644622-1.365333 41.927111-2.377956 83.854222-2.889956 125.8496 0 0.512 0.125156 0.898844 0.193423 1.388089h9.079466l7.111111 227.259733h64.785067c1.968356-66.195911 0.785067-182.328889 0.193422-227.259733H513.797689l7.133867 227.259733h64.773688c1.956978-66.195911 0.773689-182.328889 0.193423-227.259733h9.352533c0.056889-0.489244 0.238933-0.876089 0.238933-1.388089a6534.257778 6534.257778 0 0 0-2.9696-126.6688c0.762311-21.788444 1.206044-43.576889 1.661156-65.4336zM735.561956 378.584178c23.051378 0 41.767822-23.074133 41.767822-51.620978 0-28.4672-18.693689-51.620978-41.767822-51.620978-23.062756 0-41.767822 23.1424-41.767823 51.620978-0.011378 28.535467 18.670933 51.620978 41.767823 51.620978zM904.829156 359.401244c14.495289 0 26.248533-14.495289 26.248533-32.438044 0-17.885867-11.741867-32.438044-26.248533-32.438044s-26.248533 14.552178-26.248534 32.438044c-0.011378 17.931378 11.741867 32.438044 26.248534 32.438044zM157.616356 359.401244c14.495289 0 26.248533-14.495289 26.248533-32.438044 0-17.885867-11.741867-32.438044-26.248533-32.438044s-26.259911 14.552178-26.259912 32.438044c-0.011378 17.931378 11.753244 32.438044 26.259912 32.438044zM312.6272 374.272c23.005867 0 41.642667-23.1424 41.642667-51.5072 0-28.478578-18.625422-51.5072-41.642667-51.5072-23.04 0-41.699556 23.028622-41.699556 51.5072 0 28.353422 18.659556 51.5072 41.699556 51.5072z" fill="#9b9da2" p-id="3764"></path><path d="M372.087467 387.766044c-0.443733 0-17.703822-2.309689-24.4736-2.844444l-0.113778 0.625778 17.8176 15.086933-21.367467 10.683733 9.898667 17.009778-27.147378 59.926756-4.414578-84.662045 3.948089-3.470222-5.2224-18.978133h-16.839111l-5.165511 18.978133 3.902578 3.401956-4.414578 84.844089-27.147378-60.040534 9.864534-17.009778-21.333334-10.683733 17.874489-15.098311-0.182044-0.546133c-6.769778 0.477867-21.970489 2.423467-22.812445 2.821689l-0.3072-0.022756c-10.638222-0.534756-20.195556 6.678756-23.552 17.1008-4.050489-8.2944-11.5712-13.676089-19.547022-14.370133-0.250311-0.113778-0.443733-0.284444-0.762311-0.341334-6.405689-0.773689-12.788622-1.251556-19.114667-1.763555l-0.193422 0.591644 16.816356 14.142578-20.002134 10.023822 9.181867 15.849245-25.383822 56.228977-4.118756-79.405511 3.663645-3.151644-4.903823-17.8176h-15.735466l-4.903823 17.8176 3.675023 3.151644-4.084623 79.405511-25.486222-56.228977 9.216-15.849245-19.911111-10.023822 16.668445-14.142578-0.136534-0.591644c-6.3488 0.512-12.652089 1.001244-19.057778 1.763555-0.364089 0.045511-0.773689 0.341333-1.1264 0.455111a25.816178 25.816178 0 0 0-17.624177 8.2944L22.619022 469.560889l-0.3072 0.3072-0.079644 0.011378c-6.280533 56.285867-1.763556 15.644444-3.117511 28.194133v0.045511l0.091022 0.159289 0.329955 0.705422 0.7168 1.319822 1.319823 2.696534 2.730666 5.404444 5.438578 10.706489 10.865778 21.447111 21.8112 42.973867a829.189689 829.189689 0 0 0 29.4912-15.576178c-0.193422 9.068089-0.477867 18.2272-0.568889 27.3408 0 0.386844 0.136533 0.750933 0.136533 1.183289h5.154134l5.859555 186.481778h53.168356c1.627022-54.408533 0.648533-149.765689 0.136533-186.481778h5.381689l5.859556 186.481778h53.156977c1.513244-50.392178 0.807822-135.907556 0.341334-177.504711 2.3552 0.216178 4.733156 0.364089 7.111111 0.512 0.853333 0.318578 1.683911 0.739556 2.548622 1.137777l0.341333-0.967111c3.504356 0.2048 6.894933 0.512 10.296889 0.7168 0 0.045511 0.056889 0.079644 0.056889 0.147911h2.514489c1.001244 0.045511 1.991111 0.045511 2.9696 0.113778l6.269156 198.997334h56.752355c1.706667-58.072178 0.591644-159.721244 0.125156-199.111112h5.757155l6.235022 199.111112h56.797867c1.683911-58.015289 0.648533-159.527822 0.147911-198.974578 1.490489-0.022756 3.049244-0.022756 4.551111-0.136534h1.2288l0.056889-0.068266a924.387556 924.387556 0 0 0 27.921067-1.831822l-15.382756-194.332445c-1.149156-13.505422-12.1856-23.6544-24.746666-23.005867zM92.7744 526.427022l-6.235022-10.752-12.003556-20.821333-3.572622-6.109867 23.8592-28.763022a5390.336 5390.336 0 0 0-2.048 66.446222zM990.3104 407.984356c-1.160533-13.038933-11.832889-22.8352-23.9616-22.243556-0.466489 0.068267-17.123556-2.207289-23.711289-2.707911l-0.136533 0.591644 17.260089 14.586311-20.639289 10.387912 9.5232 16.395377-26.248534 57.981156-4.3008-81.908622 3.834312-3.288178-5.006223-18.363733h-16.2816l-5.051733 18.363733 3.720533 3.231289-4.164266 81.976889-26.3168-58.015289 9.580089-16.384-20.662045-10.387911 17.271467-14.597689-0.125156-0.580267c-6.542222 0.489244-21.265067 2.423467-22.061511 2.810311a0.682667 0.682667 0 0 1-0.3072-0.1024c-12.1856-0.591644-22.869333 9.193244-23.995733 22.243556l-0.807822 10.501689-16.577423-17.908623a27.818667 27.818667 0 0 0-18.852977-8.829155 450.275556 450.275556 0 0 0-21.617778-2.412089l-0.216178 0.603022 17.863111 15.121067-21.344711 10.752 9.9328 16.9984-27.249778 60.177067-4.425955-85.003378 3.902577-3.3792-5.188266-19.057778h-16.861867l-5.233778 19.057778 3.9936 3.3792-4.425955 84.8896-27.192889-60.063289 9.910044-16.9984-21.424355-10.752 17.840355-15.121067-0.147911-0.603022c-6.781156 0.546133-20.946489 2.161778-21.253689 2.218667-9.352533 0.796444-18.284089 7.452444-22.277689 17.954133l-36.260977 97.8944-1.137778 3.060622-0.295822 0.762311-0.056889 0.193423-0.034134 0.091022c2.002489 39.185067 0.546133 10.934044 0.955734 19.672178l0.068266 0.045511 0.147912 0.318577 0.682666 1.547378 2.491734 5.973334 5.063111 12.026311 10.194489 24.064 20.297955 48.071111c3.447467-1.422222 6.894933-2.992356 10.467556-4.5056l6.007466 192.694044h56.888889c1.7408-58.117689 0.648533-160.028444 0.216178-199.4752h5.711644l6.303289 199.4752h56.820623c1.752178-58.117689 0.705422-160.028444 0.159288-199.4752h5.802667c0.034133-0.420978 0.170667-0.807822 0.170667-1.274311-0.136533-9.705244-0.432356-19.490133-0.625778-29.240889 2.548622 1.376711 5.085867 2.651022 7.623111 4.027734l-0.762311 10.490311c7.8848 0.648533 15.849244 1.115022 23.790933 1.547377 0.318578 0.227556 0.6144 0.352711 1.001245 0.568889l0.227555-0.455111c0.227556 0 0.4096 0.079644 0.671289 0.079645v0.113777h2.628267c0.910222 0.079644 1.8432 0.079644 2.696533 0.125156l6.018845 192.420978h54.943289c1.661156-56.183467 0.591644-154.555733 0.170666-192.546134h5.518222l6.030223 192.546134h54.909155c1.661156-56.149333 0.637156-154.3168 0.159289-192.341334 1.490489-0.079644 2.889956-0.079644 4.357689-0.2048h1.262933v-0.011377c9.056711-0.489244 18.0224-1.115022 27.079111-1.809067l-14.927644-187.983644zM812.657778 525.425778l-6.633245 11.559822a6442.097778 6442.097778 0 0 0-2.2528-71.111111l18.466134 22.243555-1.900089 24.120889-7.68 13.186845z" fill="#9b9da2" p-id="3765"></path></svg>