<?xml version="1.0" standalone="no"?><!DOCTYPE svg PUBLIC "-//W3C//DTD SVG 1.1//EN" "http://www.w3.org/Graphics/SVG/1.1/DTD/svg11.dtd"><svg t="1577330154605" class="icon" viewBox="0 0 1024 1024" version="1.1" xmlns="http://www.w3.org/2000/svg" p-id="2614" width="16" height="16" xmlns:xlink="http://www.w3.org/1999/xlink"><defs><style type="text/css"></style></defs><path d="M402.944 199.168C256 199.168 133.12 303.616 133.12 426.496c0 75.776 42.496 137.216 104.448 180.224h4.608l-28.16 80.384L312.832 634.88h4.608c28.16 14.336 56.832 18.944 85.504 18.944h18.944c-4.608-18.944-9.216-37.888-9.216-56.832 0-113.664 109.056-208.384 246.272-208.384h9.728c-19.456-103.936-128-189.44-265.728-189.44zM308.224 384c-18.944 0-37.888-14.336-37.888-33.28s18.944-37.888 37.888-37.888 37.888 14.336 37.888 37.888c0 18.944-14.336 33.28-37.888 33.28z m189.44 0c-18.944 0-37.888-14.336-37.888-33.28s18.944-37.888 37.888-37.888 37.888 14.336 37.888 37.888c0 18.944-14.336 33.28-37.888 33.28z" fill="#66BF4C" p-id="2615"></path><path d="M890.88 602.112c0-103.936-103.936-189.44-227.328-189.44-128 0-227.328 85.504-227.328 189.44s103.936 189.44 227.328 189.44c23.552 0 47.616-4.608 71.168-9.728h4.608l80.384 42.496-23.552-71.168c61.44-37.376 94.72-89.6 94.72-151.04z m-307.712-37.888c-18.944 0-33.28-14.336-33.28-33.28s14.336-33.28 33.28-33.28 33.28 14.336 33.28 33.28-14.336 33.28-33.28 33.28z m160.768 0c-18.944 0-33.28-14.336-33.28-33.28s14.336-33.28 33.28-33.28 33.28 14.336 33.28 33.28c-4.608 18.944-18.944 33.28-33.28 33.28z" fill="#66BF4C" p-id="2616"></path></svg>